<mxfile host="app.diagrams.net" modified="2023-05-10T03:43:35.881Z" agent="Mozilla/5.0 (Windows NT 10.0; Win64; x64) AppleWebKit/537.36 (KHTML, like Gecko) Chrome/112.0.0.0 Safari/537.36 Edg/112.0.1722.58" version="21.2.9" etag="L4euNFiJeOyi77_HXb4F" type="github">
  <diagram name="第 1 页" id="HW-fGVci1GrjAz5tJQoY">
    <mxGraphModel>
      <root>
        <mxCell id="0" />
        <mxCell id="1" parent="0" />
      </root>
    </mxGraphModel>
  </diagram>
</mxfile>
